<svg width="41" height="41" viewBox="0 0 41 41" fill="none" xmlns="http://www.w3.org/2000/svg">
<path d="M17.0805 30.1675C20.7065 30.1675 23.8025 28.8906 26.3685 26.337C28.9345 23.7836 30.2175 20.6845 30.2175 17.0395C30.2175 13.4225 28.934 10.347 26.367 7.81296C23.8 5.27896 20.7065 4.01196 17.0865 4.01196C13.4645 4.01196 10.3903 5.27946 7.86398 7.81446C5.33731 10.3495 4.07398 13.4225 4.07398 17.0335C4.07398 20.6825 5.33731 23.7836 7.86398 26.337C10.3903 28.8906 13.4625 30.1675 17.0805 30.1675ZM17.1345 22.4805C16.6768 22.4805 16.2963 22.3241 15.993 22.0115C15.6896 21.6991 15.538 21.3156 15.538 20.861V10.8455C15.538 10.3908 15.6925 10.0073 16.0015 9.69496C16.3108 9.3823 16.6943 9.22596 17.152 9.22596C17.61 9.22596 17.9933 9.3823 18.302 9.69496C18.6106 10.0073 18.765 10.3908 18.765 10.8455V20.861C18.765 21.3156 18.6078 21.6991 18.2935 22.0115C17.9788 22.3241 17.5925 22.4805 17.1345 22.4805ZM9.83648 22.4805C9.37881 22.4805 8.99631 22.3241 8.68898 22.0115C8.38198 21.6991 8.22848 21.3156 8.22848 20.861V15.0195C8.22848 14.5648 8.38564 14.1813 8.69998 13.869C9.01464 13.5563 9.40098 13.4 9.85898 13.4C10.3166 13.4 10.6991 13.5563 11.0065 13.869C11.3138 14.1813 11.4675 14.5648 11.4675 15.0195V20.861C11.4675 21.3156 11.3101 21.6991 10.9955 22.0115C10.6808 22.3241 10.2945 22.4805 9.83648 22.4805ZM24.4445 22.4805C23.9865 22.4805 23.6038 22.3241 23.2965 22.0115C22.9895 21.6991 22.836 21.3156 22.836 20.861V17.0695C22.836 16.6181 22.9933 16.2375 23.308 15.9275C23.6226 15.6171 24.0088 15.462 24.4665 15.462C24.9245 15.462 25.307 15.6171 25.614 15.9275C25.9213 16.2375 26.075 16.6181 26.075 17.0695V20.861C26.075 21.3156 25.9176 21.6991 25.603 22.0115C25.2883 22.3241 24.9021 22.4805 24.4445 22.4805ZM17.081 33.49C12.538 33.49 8.68048 31.891 5.50848 28.693C2.33681 25.495 0.750977 21.6146 0.750977 17.052C0.750977 12.4893 2.33431 8.62146 5.50098 5.44846C8.66764 2.27546 12.5323 0.688965 17.095 0.688965C21.6576 0.688965 25.5391 2.27896 28.7395 5.45896C31.9398 8.63863 33.54 12.4968 33.54 17.0335C33.54 19.0078 33.217 20.8735 32.571 22.6305C31.925 24.3875 31.0186 25.9785 29.852 27.4035L40.1175 37.6685C40.4571 38.0085 40.6206 38.4063 40.608 38.862C40.5953 39.3176 40.4276 39.7155 40.105 40.0555C39.79 40.3951 39.3921 40.565 38.9115 40.565C38.4305 40.565 38.0201 40.3951 37.6805 40.0555L27.465 29.79C26.0333 30.9566 24.4368 31.865 22.6755 32.515C20.9141 33.165 19.0493 33.49 17.081 33.49Z" fill="white"/>
</svg>
