<svg width="38" height="41" viewBox="0 0 38 41" fill="none" xmlns="http://www.w3.org/2000/svg">
<path d="M17.052 35.8705C17.052 35.1468 16.7942 34.4083 16.2785 33.655C15.7625 32.9017 15.2029 32.1317 14.5995 31.345C13.9962 30.5583 13.4385 29.7282 12.9265 28.8545C12.4145 27.9805 12.1585 27.0608 12.1585 26.0955C12.1585 24.2065 12.8285 22.594 14.1685 21.258C15.5085 19.9223 17.119 19.2545 19 19.2545C20.889 19.2545 22.5015 19.9223 23.8375 21.258C25.1735 22.594 25.8415 24.2065 25.8415 26.0955C25.8415 27.0608 25.5855 27.9805 25.0735 28.8545C24.5615 29.7282 24.0039 30.5583 23.4005 31.345C22.7972 32.1317 22.2395 32.9017 21.7275 33.655C21.2159 34.4083 20.96 35.1468 20.96 35.8705H17.052ZM19 40.514C18.4174 40.514 17.9304 40.3163 17.539 39.921C17.1477 39.526 16.952 39.0372 16.952 38.4545V37.9305H21.06V38.4545C21.06 39.0372 20.8624 39.526 20.467 39.921C20.0717 40.3163 19.5827 40.514 19 40.514ZM31.665 34.713C31.408 34.4557 31.2569 34.1282 31.2115 33.7305C31.1662 33.3325 31.2555 32.9763 31.4795 32.662C32.2795 31.4873 32.9275 30.175 33.4235 28.725C33.9195 27.275 34.1675 25.7 34.1675 24C34.1675 22.1623 33.837 20.3813 33.176 18.657C32.5154 16.9327 31.5034 15.3572 30.14 13.9305C29.848 13.5905 29.6997 13.2047 29.695 12.773C29.6904 12.341 29.846 11.967 30.162 11.651C30.5337 11.2793 30.978 11.0992 31.495 11.1105C32.012 11.1215 32.4325 11.3288 32.7565 11.7325C34.2449 13.3418 35.4199 15.1877 36.2815 17.27C37.1432 19.3523 37.574 21.5957 37.574 24C37.574 25.9477 37.299 27.8085 36.749 29.5825C36.199 31.3565 35.4034 32.9928 34.362 34.4915C34.0554 34.9552 33.6349 35.2137 33.1005 35.267C32.5662 35.32 32.0877 35.1353 31.665 34.713ZM3.66203 34.477C2.64603 32.9707 1.85269 31.3328 1.28203 29.5635C0.711359 27.7945 0.426025 25.94 0.426025 24C0.426025 18.9123 2.19403 14.575 5.73003 10.988C9.26569 7.40101 13.5894 5.56768 18.701 5.48801L20.5915 5.58801L17.675 2.66001C17.351 2.34401 17.189 1.98001 17.189 1.56801C17.189 1.15601 17.351 0.792012 17.675 0.476012C17.999 0.168012 18.367 0.0120096 18.779 0.00800957C19.1907 0.00400957 19.5545 0.160012 19.8705 0.476012L25.8665 6.46001C26.0569 6.65034 26.1914 6.84084 26.27 7.03151C26.3487 7.22218 26.388 7.42951 26.388 7.65351C26.388 7.88518 26.3487 8.09834 26.27 8.29301C26.1914 8.48768 26.0569 8.67618 25.8665 8.85851L19.8705 14.8545C19.5212 15.1958 19.145 15.3602 18.742 15.3475C18.3387 15.3348 17.983 15.1705 17.675 14.8545C17.359 14.5465 17.201 14.1742 17.201 13.7375C17.201 13.3008 17.359 12.9285 17.675 12.6205L21.151 9.10651L18.725 8.90651C14.5504 8.97018 11.0267 10.466 8.15403 13.394C5.28103 16.322 3.84453 19.8573 3.84453 24C3.84453 25.46 4.06153 26.9543 4.49553 28.483C4.92953 30.0117 5.60053 31.4047 6.50853 32.662C6.73253 32.9763 6.83419 33.3242 6.81353 33.7055C6.79286 34.0865 6.65003 34.4057 6.38503 34.663C5.97036 35.0777 5.48953 35.2663 4.94253 35.229C4.39519 35.1917 3.96836 34.941 3.66203 34.477Z" fill="white"/>
</svg>
