<svg width="48" height="48" viewBox="0 0 48 48" fill="none" xmlns="http://www.w3.org/2000/svg">
<path d="M24 14C25.1046 14 26 13.1046 26 12C26 10.8954 25.1046 10 24 10C22.8954 10 22 10.8954 22 12C22 13.1046 22.8954 14 24 14Z" fill="white"/>
<path d="M12 34H36V38H12V34ZM20 23.66L25.584 29.248L33.448 21.378L36 24V16H28L30.62 18.55L25.582 23.588L20 18L12 26L14.828 28.828L20 23.66Z" fill="white"/>
<path d="M38 6.00001H31.404C31.2059 5.70552 30.9923 5.42179 30.764 5.15001L30.744 5.12601C29.274 3.41516 27.2069 2.32937 24.964 2.09001C24.327 1.96983 23.673 1.96983 23.036 2.09001C20.7931 2.32937 18.726 3.41516 17.256 5.12601L17.236 5.15001C17.0078 5.42114 16.7942 5.70421 16.596 5.99801V6.00001H10C8.40919 6.0016 6.88399 6.63425 5.75911 7.75913C4.63424 8.884 4.00159 10.4092 4 12V40C4.00159 41.5908 4.63424 43.116 5.75911 44.2409C6.88399 45.3658 8.40919 45.9984 10 46H38C39.5908 45.9984 41.116 45.3658 42.2409 44.2409C43.3658 43.116 43.9984 41.5908 44 40V12C43.9984 10.4092 43.3658 8.884 42.2409 7.75913C41.116 6.63425 39.5908 6.0016 38 6.00001ZM40 40C40 40.5304 39.7893 41.0392 39.4142 41.4142C39.0391 41.7893 38.5304 42 38 42H10C9.46957 42 8.96086 41.7893 8.58579 41.4142C8.21071 41.0392 8 40.5304 8 40V12C8 11.4696 8.21071 10.9609 8.58579 10.5858C8.96086 10.2107 9.46957 10 10 10H19.1C19.3295 8.86973 19.9427 7.85354 20.8357 7.12364C21.7288 6.39373 22.8466 5.995 24 5.995C25.1534 5.995 26.2712 6.39373 27.1643 7.12364C28.0573 7.85354 28.6705 8.86973 28.9 10H38C38.5304 10 39.0391 10.2107 39.4142 10.5858C39.7893 10.9609 40 11.4696 40 12V40Z" fill="white"/>
</svg>
