<svg width="22" height="43" viewBox="0 0 22 43" fill="none" xmlns="http://www.w3.org/2000/svg">
<path d="M5.46001 31.18V42.24H0.76001V9.44C0.76001 6.54 1.62001 4.26 3.32001 2.56C5.00001 0.86 7.34001 0 10.22 0C13 0 15.14 0.68 16.74 2C18.32 3.36 19.1 5.24 19.1 7.62C19.1 9.26 18.58 10.8 17.54 12.22C16.5 13.64 15.16 14.62 13.5 15.16V15.24C16 15.64 17.94 16.54 19.26 18C20.58 19.42 21.24 21.24 21.24 23.48C21.24 26.12 20.32 28.28 18.5 29.94C16.66 31.6 14.26 32.42 11.26 32.42C9.14001 32.42 7.20001 32 5.46001 31.18ZM8.44001 17.5V13.66C10.18 13.44 11.6 12.8 12.74 11.72C13.86 10.62 14.42 9.4 14.42 8C14.42 5.24 13 3.84 10.2 3.84C8.68001 3.84 7.50001 4.32 6.68001 5.3C5.86001 6.28 5.46001 7.64 5.46001 9.42V27C7.28001 28.06 9.06001 28.58 10.78 28.58C12.46 28.58 13.78 28.14 14.72 27.28C15.66 26.4 16.12 25.16 16.12 23.58C16.12 20 13.56 18 8.44001 17.5Z" fill="white"/>
</svg>
